<?xml version="1.0" encoding="UTF-8" standalone="no"?>
<!-- Created with Inkscape (http://www.inkscape.org/) -->

<svg
   xmlns:dc="http://purl.org/dc/elements/1.1/"
   xmlns:cc="http://creativecommons.org/ns#"
   xmlns:rdf="http://www.w3.org/1999/02/22-rdf-syntax-ns#"
   xmlns:svg="http://www.w3.org/2000/svg"
   xmlns="http://www.w3.org/2000/svg"
   xmlns:sodipodi="http://sodipodi.sourceforge.net/DTD/sodipodi-0.dtd"
   xmlns:inkscape="http://www.inkscape.org/namespaces/inkscape"
   width="300mm"
   height="300mm"
   viewBox="0 0 300 300"
   version="1.1"
   id="svg8"
   inkscape:version="0.92.4 (5da689c313, 2019-01-14)"
   sodipodi:docname="sasquash.svg">
  <defs
     id="defs2" />
  <sodipodi:namedview
     id="base"
     pagecolor="#ffffff"
     bordercolor="#666666"
     borderopacity="1.0"
     inkscape:pageopacity="0.0"
     inkscape:pageshadow="2"
     inkscape:zoom="0.73371766"
     inkscape:cx="431.0022"
     inkscape:cy="562.47857"
     inkscape:document-units="mm"
     inkscape:current-layer="layer1"
     showgrid="false"
     inkscape:window-width="1920"
     inkscape:window-height="1016"
     inkscape:window-x="0"
     inkscape:window-y="36"
     inkscape:window-maximized="1" />
  <metadata
     id="metadata5">
    <rdf:RDF>
      <cc:Work
         rdf:about="">
        <dc:format>image/svg+xml</dc:format>
        <dc:type
           rdf:resource="http://purl.org/dc/dcmitype/StillImage" />
        <dc:title></dc:title>
      </cc:Work>
    </rdf:RDF>
  </metadata>
  <g
     inkscape:label="Layer 1"
     inkscape:groupmode="layer"
     id="layer1"
     transform="translate(0,3)">
    <path
       style="fill:none;stroke:#000000;stroke-width:0.1;stroke-miterlimit:4;stroke-dasharray:none;stroke-opacity:1"
       d="m 168.21581,295.25287 c -3.73747,-1.4504 -5.67995,-3.39753 -7.37479,-7.39242 -1.7609,-4.15061 -2.26,-6.63259 -2.55686,-12.71494 -0.15451,-3.16561 -0.45698,-6.08437 -0.69096,-6.6675 -0.86092,-2.14563 -3.17002,-5.49316 -5.71593,-8.28646 -2.85704,-3.13465 -4.44719,-5.2966 -6.79037,-9.23211 -3.14069,-5.27495 -3.78306,-8.30541 -3.79283,-17.89327 -0.007,-6.5228 -0.35443,-10.97323 -1.33149,-17.03893 -0.77055,-4.78369 -1.13489,-6.09695 -1.99621,-7.19542 -1.38621,-1.76789 -11.26321,-7.88681 -18.37162,-11.38144 l -2.93684,-1.44382 -0.0303,4.45397 c -0.0354,5.20826 -0.51498,8.98889 -1.63552,12.89387 -1.72044,5.99563 -6.40951,11.87671 -12.52891,15.7139 -0.98711,0.61897 -3.042897,2.08089 -4.568424,3.24872 -9.390495,7.18864 -16.018084,11.70529 -35.24211,24.01727 -10.280015,6.5838 -13.946311,9.12192 -14.940487,10.34306 l -0.700636,0.86059 2.844244,1.76394 c 3.817967,2.36781 8.277552,4.67647 14.493066,7.50284 2.838974,1.29096 5.736616,2.81882 6.439203,3.39524 0.741821,0.60861 1.903678,2.14916 2.771022,3.6742 1.796842,3.15936 1.943482,4.51983 0.63893,5.92775 -1.859893,2.00727 -4.252979,2.29059 -8.313957,0.98432 l -2.505015,-0.80578 -2.728976,0.7317 c -2.485068,0.66629 -3.268523,0.73014 -8.765816,0.71436 -8.55576,-0.0246 -10.337441,-0.45111 -18.013133,-4.31259 -5.28211,-2.65732 -7.346125,-3.28176 -15.058287,-4.55566 -9.5011983,-1.56942 -12.0937524,-2.18736 -14.3658057,-3.42412 -1.4892306,-0.81064 -2.2702976,-1.49305 -3.060136,-2.6736 l -1.06052647,-1.58515 0.006883,-4.45811 c 0.006065,-3.92829 0.0991782,-4.69559 0.78350277,-6.45638 1.8535834,-4.76932 3.6385541,-6.49949 11.9001014,-11.53476 7.918264,-4.82604 10.486937,-6.53075 14.243273,-9.45264 7.628934,-5.93421 11.930074,-11.332 14.650777,-18.38625 0.734821,-1.90524 1.399696,-2.84139 4.277208,-6.02235 3.504116,-3.87364 5.131969,-5.3 7.45758,-6.53452 1.614862,-0.85722 10.268526,-3.93761 17.018447,-6.05794 2.701298,-0.84854 5.101331,-1.64938 5.333407,-1.77963 0.341258,-0.19153 0.330434,-0.40019 -0.0566,-1.09107 -0.838583,-1.49691 -3.173601,-7.82646 -4.469274,-12.1149 -2.055284,-6.80262 -5.164164,-19.65455 -5.737184,-23.7172 -0.188232,-1.33455 -0.341388,-1.56061 -1.449714,-2.13988 -1.575403,-0.82337 -3.485562,-2.86916 -6.777171,-7.25835 -2.208738,-2.94524 -2.645329,-3.72912 -2.831779,-5.0843 -0.38162,-2.77374 0.370633,-7.17691 2.143389,-12.54587 2.160351,-6.54285 2.307977,-8.69422 1.130988,-16.48224 -0.900752,-5.96019 -1.031409,-9.58717 -0.508501,-14.11566 0.29947,-2.59347 1.412908,-8.59731 1.832306,-9.880084 0.116008,-0.354824 -0.787844,0.111424 -2.585081,1.333504 l -2.763458,1.87908 -0.170979,5.334 c -0.131434,4.10032 -0.36567,6.19906 -1.012771,9.07425 -1.082448,4.80955 -1.152743,4.95934 -3.205945,6.83143 -1.755041,1.60024 -6.961674,7.16819 -9.234487,9.87532 -2.340595,2.78786 -4.216176,7.56778 -4.883655,12.446 -0.194158,1.41899 -0.139856,1.55687 1.283785,3.25966 1.751216,2.09461 4.332384,6.73741 5.601384,10.07534 1.162281,3.05721 1.250028,6.94208 0.20414,9.03816 -0.85624,1.71601 -2.582294,3.85234 -3.112508,3.85234 -0.22663,0 -1.044263,-1.2516 -1.816963,-2.78132 -2.169021,-4.29405 -4.444487,-7.7013 -4.832499,-7.2361 -0.177349,0.21262 -1.244162,1.81786 -2.370696,3.5672 l -2.048244,3.18062 1.02467,1.17488 c 1.578188,1.80954 4.740535,3.92674 8.407232,5.62868 1.917924,0.89022 3.746709,1.97576 4.309953,2.55832 0.988257,1.02214 1.792123,3.01774 1.583601,3.93128 -0.122832,0.53813 -0.09828,0.53784 -3.945964,0.047 -1.912165,-0.24395 -3.180914,-0.23664 -5.057896,0.0291 -3.768532,0.53358 -5.774638,0.38474 -10.118719,-0.75073 -4.939972,-1.29123 -6.562939,-2.03505 -9.230615,-4.23048 -1.449831,-1.19317 -2.758856,-1.96082 -4.148332,-2.43271 l -2.030076,-0.68944 -2.4020813,-4.48006 c -3.3637158,-6.2736 -3.5770041,-6.8936 -3.5800557,-10.40674 -0.00203,-2.33539 0.2850829,-4.21922 1.3549117,-8.89 1.715147,-7.48819 2.2804999,-10.57304 4.3119259,-23.52806 1.7603054,-11.22599 2.4707084,-14.78977 3.7330554,-18.72707 0.748047,-2.33319 1.391259,-3.74757 5.209908,-11.456302 1.59331,-3.216426 1.842206,-4.686704 1.015663,-5.99974 -0.768497,-1.220825 -0.580885,-2.60896 0.616938,-4.564689 0.608525,-0.993564 1.866177,-3.664541 2.794781,-5.935509 3.184184,-7.787151 6.223879,-13.489245 11.698988,-21.945872 5.36443,-8.285673 5.213066,-7.996867 4.543407,-8.668838 -0.819973,-0.822811 -0.703054,-1.455915 0.553843,-2.999056 2.025347,-2.486602 5.300025,-5.073301 9.8131,-7.751461 3.206141,-1.902597 4.288778,-2.793312 5.068983,-4.170394 0.718724,-1.268565 1.361752,-1.679306 4.573023,-2.921074 5.276357,-2.040317 6.017806,-2.141589 17.27905,-2.360072 11.615825,-0.225362 11.472971,-0.199338 14.207109,-2.588194 2.057317,-1.797507 4.473017,-2.958897 9.385933,-4.512448 7.641226,-2.416292 8.807626,-3.148709 18.022816,-11.317137 6.93717,-6.1491659 9.04016,-7.6478939 13.07348,-9.317058 3.97679,-1.64576382 5.86889,-1.98120089 10.55318,-1.87089972 4.05276,0.0954306 4.1325,0.1108241 6.97982,1.34734752 3.76841,1.6365377 5.6283,2.9075502 7.81995,5.3439991 2.61228,2.9040614 6.00109,9.0191211 8.41551,15.1856871 0.41479,1.059392 1.39147,2.804037 2.1704,3.876989 1.61299,2.221845 1.94266,3.455157 1.40674,5.262572 -0.37384,1.260776 -0.45807,1.331861 -3.74225,3.158273 -0.45569,0.253418 -0.10616,0.777727 2.41355,3.620482 1.62052,1.828282 2.94641,3.592271 2.94641,3.919975 0,0.32847 -0.82089,1.341287 -1.82942,2.257156 l -1.82943,1.66133 0.40561,1.315584 c 0.56562,1.834582 0.25232,4.102732 -1.13667,8.228735 -1.80606,5.364935 -2.83228,7.592905 -3.49734,7.592905 -0.31207,0 -2.17711,-0.521455 -4.14452,-1.158785 l -3.57712,-1.158785 1.23975,1.487487 c 1.72238,2.066573 4.0517,5.964203 4.852,8.118834 0.62317,1.677718 1.06811,4.945641 1.57027,11.532912 0.19586,2.569287 0.16628,2.735097 -0.77326,4.333972 -0.6471,1.101223 -1.11372,2.50031 -1.38216,4.144175 -0.61209,3.748374 -2.41615,10.386409 -4.07703,15.001359 -0.81612,2.26766 -1.47748,4.24557 -1.46971,4.39534 0.008,0.14978 0.92458,0.80573 2.03733,1.45766 4.55543,2.66891 10.40483,7.54304 24.31969,20.26487 15.78256,14.4294 17.7093,16.35941 22.24328,22.28109 1.67534,2.18811 3.43024,4.38199 3.89978,4.87529 1.27507,1.33962 2.56281,3.92343 3.33193,6.68545 0.55225,1.98318 0.65639,3.06674 0.5371,5.5881 -0.17424,3.68263 -0.70951,4.86345 -3.78577,8.35154 -2.59414,2.94143 -3.23693,3.43157 -4.96035,3.7823 -0.81023,0.1649 -2.47282,0.773 -3.69463,1.35134 -2.70845,1.28202 -5.008,1.44131 -6.12774,0.42446 -1.221,-1.10882 -0.74172,-2.83436 1.91769,-6.90422 l 2.30715,-3.53077 -0.91562,-1.50689 c -0.50359,-0.82879 -1.16234,-2.20305 -1.46387,-3.0539 -0.63458,-1.79058 -1.73831,-2.75679 -4.514,-3.95157 -2.1689,-0.9336 -6.01246,-1.94349 -6.3231,-1.6614 -0.43409,0.39421 -0.72158,3.14563 -0.74039,7.08589 -0.0186,3.89612 -0.0486,4.07459 -0.68426,4.07459 -1.24005,0 -5.88727,-4.97289 -7.34571,-7.86048 -0.41372,-0.81913 -1.21065,-3.08608 -1.77096,-5.03767 -0.56031,-1.9516 -1.39247,-4.68183 -1.84924,-6.06719 l -0.83051,-2.51883 -3.12173,-2.07433 c -12.30114,-8.17387 -15.98725,-10.08964 -21.84082,-11.35125 -4.63875,-0.99979 -6.28751,-1.7954 -9.29185,-4.48381 l -2.17351,-1.94494 -0.16312,1.48166 c -0.25409,2.30792 -1.40387,4.69102 -3.89658,8.07627 l -2.29306,3.11412 1.92358,1.51035 c 6.66732,5.23502 11.12002,9.76237 20.14577,20.48355 7.38905,8.77702 11.61926,13.49035 18.04052,20.10088 5.38542,5.54415 9.58466,11.09725 9.58466,12.67484 0,0.30708 -0.164,1.12697 -0.36444,1.82199 -0.33857,1.17399 -0.26665,1.49502 1.01335,4.52334 1.08559,2.56836 1.4423,3.88813 1.68196,6.223 0.16729,1.62983 0.58709,4.43018 0.93288,6.223 0.64438,3.34091 2.10225,12.74446 4.73198,30.52233 0.81969,5.54144 1.56267,10.26252 1.65106,10.4913 0.13133,0.33996 0.9491,0.38652 4.47537,0.2548 5.18974,-0.19385 5.88588,-0.0662 6.11115,1.12045 l 0.16625,0.87579 4.59093,0.18548 c 2.9485,0.11912 5.69106,0.42142 7.66601,0.84499 3.64286,0.78128 5.36607,0.69547 8.81691,-0.43906 3.59181,-1.18087 6.0493,-1.66754 7.92147,-1.56874 l 1.67355,0.0883 v 4.30852 4.30852 l -3.37511,6.21131 c -1.85631,3.41622 -3.54499,6.52199 -3.75263,6.90172 -0.23196,0.42419 -1.09658,0.95254 -2.24232,1.37025 -1.02564,0.37391 -3.33408,1.44194 -5.12988,2.37339 -4.72211,2.44928 -5.14976,2.52979 -13.4382,2.52979 h -7.11335 l -3.74359,1.74848 c -2.05898,0.96167 -4.92384,2.16182 -6.36637,2.667 -2.50207,0.87625 -2.83724,0.91796 -7.2833,0.90635 -4.25899,-0.0111 -4.82921,-0.0776 -6.61842,-0.77197 z m 13.29933,-0.85723 c 1.65905,-0.58078 4.68457,-1.85749 6.72336,-2.83713 l 3.70689,-1.78115 7.06153,0.0924 c 8.19419,0.10724 8.69639,0.011 13.63093,-2.61316 1.63896,-0.87158 3.78303,-1.86378 4.76458,-2.20489 l 1.78466,-0.62019 1.5166,-3.16997 c 0.83413,-1.74348 2.32139,-4.44921 3.30502,-6.01272 0.98363,-1.56352 2.01017,-3.61591 2.2812,-4.56086 1.20219,-4.19141 0.92525,-7.69302 -0.5862,-7.41186 -0.38992,0.0725 -1.38612,0.21123 -2.21377,0.30822 -0.82766,0.097 -2.93753,0.64137 -4.6886,1.20972 -4.44124,1.44151 -6.02871,1.53013 -10.71952,0.5984 -2.90901,-0.57782 -4.79876,-0.76789 -7.66843,-0.77131 -2.09445,-0.002 -3.99788,-0.11388 -4.22984,-0.24751 -0.23195,-0.13364 -0.53604,-0.63166 -0.67576,-1.10671 l -0.25402,-0.86375 -5.1031,-0.0815 -5.1031,-0.0815 -0.17561,-0.95562 c -0.0966,-0.52559 -0.69563,-4.42272 -1.33123,-8.66029 -2.79279,-18.6197 -4.47455,-29.24992 -5.06323,-32.004 -0.34837,-1.62983 -0.63384,-3.7056 -0.63438,-4.61282 -0.002,-2.46045 -0.52857,-4.61047 -1.99901,-8.15403 -0.97118,-2.34039 -1.26865,-3.4306 -1.11889,-4.10056 0.11221,-0.50192 0.28697,-1.26854 0.38837,-1.70359 0.40765,-1.74906 -2.92683,-6.06656 -12.00092,-15.53888 -5.94462,-6.20551 -7.81607,-8.29251 -12.84423,-14.3236 -10.1168,-12.13473 -14.60909,-16.86553 -20.6739,-21.77155 -2.17962,-1.76317 -3.96295,-3.38417 -3.96295,-3.60223 0,-0.21807 1.09482,-1.88451 2.43293,-3.70322 2.49367,-3.38929 3.56983,-5.69901 3.9605,-8.50027 0.11933,-0.85566 0.38161,-1.5557 0.58283,-1.55564 0.20121,6e-5 1.49077,0.98597 2.86568,2.19091 2.9745,2.6068 5.46889,3.79463 9.4107,4.4814 3.33515,0.58107 7.33239,2.26885 11.82552,4.99316 5.8835,3.56734 13.54399,8.75749 13.71196,9.29016 0.0916,0.29063 0.92221,3.10879 1.84569,6.26256 1.7005,5.80735 2.27572,7.16248 4.02412,9.48019 1.08043,1.43224 3.79071,4.28919 4.21439,4.44245 0.15018,0.0543 0.27597,-1.41252 0.27952,-3.25966 0.006,-3.14878 0.45468,-7.28383 0.82691,-7.62186 0.35347,-0.32098 4.34511,0.526 6.73259,1.42859 3.33628,1.26128 5.27223,2.82537 5.99199,4.84104 0.30437,0.85238 0.99281,2.31037 1.52987,3.23997 l 0.97647,1.69019 -2.4824,3.79198 c -2.69834,4.12182 -3.04963,5.32676 -1.7871,6.12982 0.91008,0.57887 2.14609,0.35647 4.86912,-0.87614 1.17857,-0.53349 2.72041,-1.0644 3.42632,-1.17981 1.49059,-0.24369 3.38465,-1.8559 5.7396,-4.88553 2.3284,-2.99549 2.67265,-4.11676 2.47375,-8.05755 -0.19289,-3.82188 -1.21852,-7.0305 -2.96693,-9.28186 -9.25622,-11.91884 -9.30286,-11.96954 -20.56999,-22.35879 -19.80231,-18.25941 -24.60023,-22.33407 -30.69906,-26.07138 -1.52978,-0.93744 -2.44289,-1.68644 -2.34329,-1.92215 2.10561,-4.98296 4.58278,-13.094122 5.60235,-18.344153 0.54477,-2.805183 1.05912,-4.534125 1.61998,-5.445407 0.97026,-1.576475 1.0027,-2.397615 0.35415,-8.965242 -0.61337,-6.211387 -1.44177,-8.26228 -5.57164,-13.793855 -2.02694,-2.714896 -2.59089,-3.908088 -1.71073,-3.619462 6.95575,2.28094 8.47443,2.67541 8.76144,2.275754 0.34817,-0.484825 3.0247,-8.044979 3.57721,-10.104247 0.35403,-1.319489 0.28685,-3.134267 -0.19142,-5.171494 -0.19724,-0.840132 -0.0447,-1.08538 1.60822,-2.586474 1.00437,-0.912088 1.82613,-1.798907 1.82613,-1.970715 0,-0.171808 -1.32158,-1.807103 -2.93684,-3.633989 -1.61527,-1.826886 -2.93685,-3.525333 -2.93685,-3.77433 0,-0.248997 0.86332,-0.883722 1.91848,-1.410505 3.13983,-1.567529 3.42444,-3.373622 1.05494,-6.694497 -0.71384,-1.000461 -1.84119,-3.15252 -2.50521,-4.782354 -1.52039,-3.73178 -4.94261,-10.295744 -6.35523,-12.1896101 -1.42894,-1.9157429 -3.41422,-3.8931548 -5.0783,-5.0581576 -3.2042,-2.243236 -9.54912,-4.19526079 -12.36626,-3.8044987 -4.55564,0.6319089 -9.98538,2.6254728 -13.41207,4.9243222 -1.05388,0.7070105 -4.8729,3.9084204 -8.48672,7.1142442 -8.45368,7.499274 -10.20151,8.591072 -17.25911,10.781068 -5.126191,1.590677 -7.398322,2.67413 -9.446159,4.50435 -2.880504,2.574404 -2.754445,2.550612 -14.70121,2.774832 -10.238284,0.192152 -10.496246,0.211997 -13.215791,1.016661 -1.525527,0.451375 -3.80158,1.262575 -5.057896,1.802664 -1.962793,0.843803 -2.421126,1.195023 -3.257226,2.496001 -0.798641,1.242691 -1.617348,1.903879 -4.568421,3.689441 -4.515206,2.731954 -7.71098,5.177065 -9.706624,7.426618 l -1.553002,1.750598 0.690439,0.667411 c 0.934601,0.903428 0.697872,1.613804 -1.811967,5.437331 -8.093779,12.330193 -10.860879,17.36356 -14.357955,26.117191 -0.80607,2.017695 -2.058415,4.70788 -2.782989,5.978193 l -1.317408,2.309658 0.564042,1.098176 c 0.318921,0.620934 0.564478,1.806465 0.565046,2.728009 8.81e-4,1.415152 -0.346883,2.312914 -2.6401,6.815668 -3.22764,6.3375 -3.468826,6.90154 -4.517157,10.56378 -1.014509,3.54408 -1.489388,6.01411 -2.783178,14.47639 -1.9966841,13.05969 -3.0074373,18.72949 -4.5887661,25.74059 -0.8901446,3.94661 -1.6133101,7.95843 -1.6134445,8.95071 -3.589e-4,2.54644 0.6592108,4.37269 3.4854404,9.65084 l 2.4810325,4.63348 1.7916887,0.55235 c 1.202344,0.37067 2.501906,1.1262 3.950853,2.2969 2.617141,2.11457 4.804206,3.0835 10.153903,4.49843 l 4.078948,1.07884 2.936842,-0.36631 c 3.338723,-0.41644 6.670522,-0.42802 8.621431,-0.03 1.543748,0.31499 1.608698,0.17091 0.71749,-1.59155 -0.788285,-1.55891 -1.26233,-1.90623 -4.937984,-3.61788 -1.707383,-0.79509 -3.925991,-1.99683 -4.93024,-2.67055 -1.974519,-1.32464 -4.854908,-4.1384 -4.854908,-4.74261 0,-0.75619 5.06047,-8.35167 5.573295,-8.3652 0.554955,-0.0146 3.862222,4.98735 5.428143,8.20966 0.495021,1.01864 1.015442,1.85208 1.156489,1.85208 0.501799,0 2.150963,-2.7279 2.540405,-4.20211 0.217708,-0.82413 0.320644,-2.24938 0.228747,-3.16723 -0.339877,-3.39472 -3.092152,-9.23952 -6.344477,-13.47329 -1.746706,-2.27382 -1.779031,-2.35344 -1.56381,-3.85234 0.696293,-4.84934 2.13765,-8.87334 4.263238,-11.9022 1.221919,-1.74117 7.547092,-8.68834 10.29657,-11.3091 1.053876,-1.00454 1.91614,-1.89304 1.91614,-1.97444 0,-0.0814 0.440526,-2.23816 0.978947,-4.79279 0.831146,-3.94351 0.978948,-5.35319 0.978948,-9.33675 v -4.69197 l 3.292017,-2.24606 c 1.810606,-1.235327 3.499291,-2.246055 3.752632,-2.246055 0.618,0 0.588119,0.427254 -0.331608,4.741335 -1.766785,8.28732 -1.894117,13.80294 -0.51308,22.225 1.045324,6.37475 0.836968,8.8999 -1.254789,15.20724 -1.874286,5.6516 -2.488696,8.84252 -2.260445,11.73955 0.146288,1.85669 0.295698,2.18318 2.055979,4.49278 3.86867,5.07594 5.524305,6.89615 7.062411,7.76444 1.033221,0.58327 1.597417,1.12676 1.713139,1.65025 0.0949,0.42932 0.407196,2.0474 0.693992,3.59574 1.789477,9.66096 5.905605,24.17778 8.849333,31.20995 0.806463,1.92653 1.3992,3.66156 1.3172,3.85562 -0.082,0.19407 -2.259669,1.00217 -4.839254,1.79579 -6.692284,2.05891 -14.830425,4.8569 -16.927001,5.81972 -2.971425,1.36457 -4.284321,2.40851 -7.95074,6.32199 -3.557303,3.797 -4.227699,4.83856 -5.932089,9.2164 -1.408216,3.6171 -4.753848,7.91516 -9.600004,12.33292 -5.088096,4.63831 -7.623514,6.45617 -17.366986,12.45194 -4.259161,2.62093 -8.3297311,5.34245 -9.0457117,6.04783 -1.5081916,1.48585 -3.3254042,4.61404 -4.1171666,7.08735 -0.3553785,1.11014 -0.55815396,2.8411 -0.57071304,4.87181 -0.0229654,3.71334 0.54100154,5.22358 2.54829684,6.82405 2.4671409,1.96713 4.1606003,2.42694 17.5411795,4.76288 6.459809,1.12773 8.411435,1.71764 12.359785,3.73598 7.915041,4.04605 9.763392,4.55806 17.239412,4.77546 5.409112,0.15729 6.73697,0.0384 10.778411,-0.96536 l 2.131041,-0.52926 3.127385,0.928 c 3.589373,1.06508 4.891843,0.95881 6.53482,-0.53321 1.267529,-1.15107 1.189161,-2.19443 -0.377345,-5.02379 -1.979869,-3.57596 -2.651548,-4.11871 -8.088779,-6.53625 -8.08638,-3.59542 -18.660951,-9.43701 -18.669918,-10.31361 -0.0078,-0.7634 2.316943,-2.95343 5.301193,-4.99398 2.811243,-1.92226 7.483832,-4.94784 18.678984,-12.09498 6.765584,-4.31925 20.41997,-13.66094 24.104937,-16.49148 1.771396,-1.36066 4.978979,-3.6977 7.127957,-5.19341 4.86505,-3.38612 5.3879,-3.83787 7.81639,-6.75344 4.74186,-5.69293 6.42918,-11.10191 6.65807,-21.3436 0.0762,-3.41076 0.25522,-5.66736 0.45432,-5.72763 0.84765,-0.25659 13.11378,6.37885 18.44886,9.98003 4.42349,2.98585 5.1121,3.93756 5.84434,8.07724 1.19429,6.75187 1.55727,10.69658 1.82382,19.82037 0.29973,10.2593 0.45158,11.29033 2.20408,14.96484 1.53608,3.22077 5.23391,8.54016 8.22876,11.83722 3.51413,3.86876 5.70549,7.50615 6.18033,10.25865 0.18095,1.04892 0.32622,3.37398 0.32282,5.1668 -0.01,5.06288 0.93025,9.28333 2.98682,13.41251 1.44092,2.89306 2.9661,4.37118 5.77738,5.59911 4.38827,1.91674 8.53863,1.98984 13.54151,0.23851 z"
       id="path3997"
       inkscape:connector-curvature="0" />
    <path
       style="fill:none;stroke:#000000;stroke-width:0.1;stroke-miterlimit:4;stroke-dasharray:none;stroke-opacity:1"
       d="m 207.69568,4.3266293 a 2.5,2.5 0 0 0 -2.49959,2.4861498 h -5.3e-4 v 9.7265369 a 5,5 0 0 0 -2.50011,4.323252 5,5 0 0 0 5.00021,5.000209 5,5 0 0 0 5.00021,-5.000209 5,5 0 0 0 -2.5001,-4.324803 V 6.8127791 h -5.3e-4 a 2.5,2.5 0 0 0 -2.49959,-2.4861498 z"
       id="path4018"
       inkscape:connector-curvature="0" />
    <path
       style="fill:none;stroke:#000000;stroke-width:0.1578332;stroke-miterlimit:4;stroke-dasharray:none;stroke-opacity:1"
       d="m 187.72458,-0.32636985 h 39.94216 V 74.515793 h -39.94216 z"
       id="rect4830"
       inkscape:connector-curvature="0" />
    <g
       id="g4849"
       transform="translate(-41.83035,154.70017)">
      <path
         style="fill:none;stroke:#000000;stroke-width:0.1;stroke-miterlimit:4;stroke-dasharray:none;stroke-opacity:1"
         d="m 251.63057,76.949997 h 25 v 20 h -25 z"
         id="rect4843"
         inkscape:connector-curvature="0" />
      <path
         style="fill:none;stroke:#000000;stroke-width:0.1;stroke-miterlimit:4;stroke-dasharray:none;stroke-opacity:1"
         d="m 244.13057,28.950001 h 40 V 103.95 h -40 z"
         id="rect4845"
         inkscape:connector-curvature="0" />
    </g>
    <g
       id="g4860"
       transform="translate(12.26062,156.97876)">
      <path
         style="fill:none;stroke:#000000;stroke-width:0.1;stroke-miterlimit:4;stroke-dasharray:none;stroke-opacity:1"
         d="m 238.24573,61.950001 h 40 V 136.95 h -40 z"
         id="rect4851"
         inkscape:connector-curvature="0" />
      <path
         style="fill:none;stroke:#000000;stroke-width:0.1;stroke-miterlimit:4;stroke-dasharray:none;stroke-opacity:1"
         d="m 241.24573,101.95 h 34 v 32 h -34 z"
         id="rect4853"
         inkscape:connector-curvature="0" />
      <path
         style="fill:none;stroke:#000000;stroke-width:0.1;stroke-miterlimit:4;stroke-dasharray:none;stroke-opacity:1"
         d="m 250.74573,66.572472 h 15 v 25 h -15 z"
         id="rect4855"
         inkscape:connector-curvature="0" />
    </g>
    <g
       aria-label="1"
       style="font-style:normal;font-weight:normal;font-size:10.58333302px;line-height:1.25;font-family:sans-serif;letter-spacing:0px;word-spacing:0px;fill:none;fill-opacity:1;stroke:#000000;stroke-width:0.1;stroke-miterlimit:4;stroke-dasharray:none;stroke-opacity:1"
       id="text4864">
      <path
         d="m 212.26737,223.6396 h 1.70532 v -5.88595 l -1.85518,0.37207 v -0.95084 l 1.84485,-0.37207 h 1.04386 v 6.83679 h 1.70532 v 0.8785 h -4.44417 z"
         style="fill:none;stroke:#000000;stroke-width:0.1;stroke-miterlimit:4;stroke-dasharray:none;stroke-opacity:1"
         id="path4946"
         inkscape:connector-curvature="0" />
    </g>
    <g
       aria-label="2"
       style="font-style:normal;font-weight:normal;font-size:10.58333302px;line-height:1.25;font-family:sans-serif;letter-spacing:0px;word-spacing:0px;fill:none;fill-opacity:1;stroke:#000000;stroke-width:0.1;stroke-miterlimit:4;stroke-dasharray:none;stroke-opacity:1"
       id="text4868">
      <path
         d="m 256.81111,252.02621 h 3.64319 v 0.8785 h -4.89893 v -0.8785 q 0.59428,-0.61495 1.61748,-1.64848 1.02836,-1.03869 1.29191,-1.33842 0.50126,-0.56327 0.69763,-0.95084 0.20154,-0.39275 0.20154,-0.76998 0,-0.61495 -0.43408,-1.00253 -0.42892,-0.38757 -1.12138,-0.38757 -0.49093,0 -1.0387,0.17053 -0.5426,0.17054 -1.16272,0.51677 v -1.0542 q 0.63045,-0.25322 1.17822,-0.38241 0.54777,-0.12919 1.00253,-0.12919 1.19889,0 1.91202,0.59945 0.71314,0.59944 0.71314,1.60197 0,0.47542 -0.18087,0.90433 -0.1757,0.42375 -0.64595,1.00253 -0.1292,0.14986 -0.82166,0.86816 -0.69246,0.71314 -1.95337,1.99988 z"
         style="fill:none;stroke:#000000;stroke-width:0.1;stroke-miterlimit:4;stroke-dasharray:none;stroke-opacity:1"
         id="path4949"
         inkscape:connector-curvature="0" />
    </g>
    <g
       id="g4900"
       transform="translate(0,4.7625002)">
      <path
         style="fill:none;stroke:#000000;stroke-width:0.1;stroke-miterlimit:4;stroke-dasharray:none;stroke-opacity:1"
         d="m 250.50635,134.79089 h 40 v 75 h -40 z"
         id="rect4887"
         inkscape:connector-curvature="0" />
      <path
         style="fill:none;stroke:#000000;stroke-width:0.1;stroke-miterlimit:4;stroke-dasharray:none;stroke-opacity:1"
         d="m 263.00635,139.41336 h 15 v 25 h -15 z"
         id="rect4891"
         inkscape:connector-curvature="0" />
    </g>
    <path
       style="fill:none;stroke:#000000;stroke-width:0.1;stroke-miterlimit:4;stroke-dasharray:none;stroke-opacity:1"
       d="m 257.50635,179.55339 h 26 v 35 h -26 z"
       id="rect4902"
       inkscape:connector-curvature="0" />
    <g
       transform="translate(0.19204627,-74.280772)"
       id="g4908">
      <path
         style="fill:none;stroke:#000000;stroke-width:0.1;stroke-miterlimit:4;stroke-dasharray:none;stroke-opacity:1"
         d="m 250.50635,134.79089 h 40 v 75 h -40 z"
         id="rect4904"
         inkscape:connector-curvature="0" />
      <path
         style="fill:none;stroke:#000000;stroke-width:0.1;stroke-miterlimit:4;stroke-dasharray:none;stroke-opacity:1"
         d="m 263.00635,139.41336 h 15 v 25 h -15 z"
         id="rect4906"
         inkscape:connector-curvature="0" />
    </g>
    <path
       style="fill:none;stroke:#000000;stroke-width:0.1;stroke-miterlimit:4;stroke-dasharray:none;stroke-opacity:1"
       d="m 257.69839,100.51012 h 26 v 35 h -26 z"
       id="rect4910"
       inkscape:connector-curvature="0" />
    <g
       aria-label="3"
       style="font-style:normal;font-weight:normal;font-size:10.58333302px;line-height:1.25;font-family:sans-serif;letter-spacing:0px;word-spacing:0px;fill:none;fill-opacity:1;stroke:#000000;stroke-width:0.1;stroke-miterlimit:4;stroke-dasharray:none;stroke-opacity:1"
       id="text4914">
      <path
         d="m 259.68399,172.21848 q 0.74931,0.1602 1.16789,0.66663 0.42374,0.50643 0.42374,1.25057 0,1.14205 -0.78548,1.76733 -0.78548,0.62528 -2.23242,0.62528 -0.48576,0 -1.00252,-0.0982 -0.5116,-0.093 -1.05937,-0.28422 v -1.00769 q 0.43408,0.25321 0.95085,0.3824 0.51676,0.1292 1.08004,0.1292 0.98185,0 1.49344,-0.38758 0.51677,-0.38757 0.51677,-1.12654 0,-0.68213 -0.48059,-1.06454 -0.47543,-0.38757 -1.32809,-0.38757 h -0.89917 v -0.85783 h 0.94051 q 0.76998,0 1.17823,-0.30489 0.40824,-0.31006 0.40824,-0.88884 0,-0.59427 -0.42375,-0.9095 -0.41858,-0.32039 -1.20406,-0.32039 -0.42891,0 -0.91984,0.093 -0.49092,0.093 -1.08003,0.28939 v -0.93018 q 0.59427,-0.16536 1.11104,-0.24804 0.52193,-0.0827 0.98185,-0.0827 1.18856,0 1.88102,0.5426 0.69247,0.53743 0.69247,1.45727 0,0.64079 -0.36691,1.08521 -0.3669,0.43925 -1.04386,0.60978 z"
         style="fill:none;stroke:#000000;stroke-width:0.1;stroke-miterlimit:4;stroke-dasharray:none;stroke-opacity:1"
         id="path4958"
         inkscape:connector-curvature="0" />
    </g>
    <g
       aria-label="4"
       style="font-style:normal;font-weight:normal;font-size:10.58333302px;line-height:1.25;font-family:sans-serif;letter-spacing:0px;word-spacing:0px;fill:none;fill-opacity:1;stroke:#000000;stroke-width:0.1;stroke-miterlimit:4;stroke-dasharray:none;stroke-opacity:1"
       id="text4918">
      <path
         d="m 257.99399,88.412659 -2.6355,4.118611 h 2.6355 z m -0.27389,-0.909505 h 1.31258 v 5.028116 h 1.10071 v 0.868164 h -1.10071 v 1.819011 h -1.03869 V 93.399434 H 254.511 v -1.00769 z"
         style="fill:none;stroke:#000000;stroke-width:0.1;stroke-miterlimit:4;stroke-dasharray:none;stroke-opacity:1"
         id="path4961"
         inkscape:connector-curvature="0" />
    </g>
    <g
       id="g4924"
       transform="translate(-44.462616,-52.840894)">
      <path
         style="fill:none;stroke:#000000;stroke-width:0.1;stroke-miterlimit:4;stroke-dasharray:none;stroke-opacity:1"
         d="m 250.50635,134.79089 h 40 v 75 h -40 z"
         id="rect4920"
         inkscape:connector-curvature="0" />
      <path
         style="fill:none;stroke:#000000;stroke-width:0.1;stroke-miterlimit:4;stroke-dasharray:none;stroke-opacity:1"
         d="m 263.00635,139.41336 h 15 v 25 h -15 z"
         id="rect4922"
         inkscape:connector-curvature="0" />
    </g>
    <path
       style="fill:none;stroke:#000000;stroke-width:0.1;stroke-miterlimit:4;stroke-dasharray:none;stroke-opacity:1"
       d="m 218.54373,130.95 h 15 v 15 h -15 z"
       id="rect4926"
       inkscape:connector-curvature="0" />
    <g
       aria-label="5"
       style="font-style:normal;font-weight:normal;font-size:10.58333302px;line-height:1.25;font-family:sans-serif;letter-spacing:0px;word-spacing:0px;fill:none;fill-opacity:1;stroke:#000000;stroke-width:0.1;stroke-miterlimit:4;stroke-dasharray:none;stroke-opacity:1"
       id="text4930">
      <path
         d="m 214.98168,117.27543 h 4.09794 v 0.8785 h -3.14193 v 1.89136 q 0.22738,-0.0775 0.45476,-0.11369 0.22737,-0.0413 0.45475,-0.0413 1.29191,0 2.04639,0.70797 0.75447,0.70796 0.75447,1.91719 0,1.2454 -0.77515,1.93787 -0.77514,0.68729 -2.18591,0.68729 -0.48576,0 -0.99219,-0.0827 -0.50126,-0.0827 -1.03869,-0.24804 v -1.04904 q 0.46509,0.25322 0.96118,0.37724 0.49609,0.12402 1.04903,0.12402 0.894,0 1.41594,-0.47025 0.52193,-0.47026 0.52193,-1.27641 0,-0.80615 -0.52193,-1.27641 -0.52194,-0.47025 -1.41594,-0.47025 -0.41858,0 -0.83716,0.093 -0.41341,0.093 -0.84749,0.28938 z"
         style="fill:none;stroke:#000000;stroke-width:0.1;stroke-miterlimit:4;stroke-dasharray:none;stroke-opacity:1"
         id="path4967"
         inkscape:connector-curvature="0" />
    </g>
  </g>
</svg>
